<mxfile host="Electron" modified="2023-04-07T02:45:35.789Z" agent="Mozilla/5.0 (Windows NT 10.0; Win64; x64) AppleWebKit/537.36 (KHTML, like Gecko) draw.io/21.1.2 Chrome/106.0.5249.199 Electron/21.4.3 Safari/537.36" etag="s_9hexArA-lexxywNwMj" version="21.1.2" type="device">
  <diagram name="Page-1" id="LFTyKNfZxazNtSX64OvF">
    <mxGraphModel dx="1954" dy="1626" grid="1" gridSize="10" guides="1" tooltips="1" connect="1" arrows="1" fold="1" page="1" pageScale="1" pageWidth="850" pageHeight="1100" math="0" shadow="0">
      <root>
        <mxCell id="0" />
        <mxCell id="1" parent="0" />
        <mxCell id="ZkJlQXpscqVsZKB4UgPO-1" style="edgeStyle=orthogonalEdgeStyle;rounded=0;orthogonalLoop=1;jettySize=auto;html=1;entryX=0.5;entryY=0;entryDx=0;entryDy=0;" parent="1" source="ZkJlQXpscqVsZKB4UgPO-2" target="2J5yL2-UcYWqf9Rif4sb-1" edge="1">
          <mxGeometry relative="1" as="geometry">
            <mxPoint x="425.5" y="140" as="targetPoint" />
          </mxGeometry>
        </mxCell>
        <mxCell id="ZkJlQXpscqVsZKB4UgPO-2" value="begin" style="ellipse;whiteSpace=wrap;html=1;aspect=fixed;" parent="1" vertex="1">
          <mxGeometry x="385" y="10" width="80" height="80" as="geometry" />
        </mxCell>
        <mxCell id="ZkJlQXpscqVsZKB4UgPO-3" value="end" style="ellipse;whiteSpace=wrap;html=1;aspect=fixed;" parent="1" vertex="1">
          <mxGeometry x="384.5" y="510" width="80" height="80" as="geometry" />
        </mxCell>
        <mxCell id="ZkJlQXpscqVsZKB4UgPO-11" style="edgeStyle=orthogonalEdgeStyle;rounded=0;orthogonalLoop=1;jettySize=auto;html=1;exitX=0.5;exitY=1;exitDx=0;exitDy=0;" parent="1" edge="1">
          <mxGeometry relative="1" as="geometry">
            <mxPoint x="760" y="100" as="sourcePoint" />
            <mxPoint x="760" y="100" as="targetPoint" />
          </mxGeometry>
        </mxCell>
        <mxCell id="ZkJlQXpscqVsZKB4UgPO-16" style="edgeStyle=orthogonalEdgeStyle;rounded=0;orthogonalLoop=1;jettySize=auto;html=1;entryX=0.5;entryY=0;entryDx=0;entryDy=0;" parent="1" source="ZkJlQXpscqVsZKB4UgPO-18" target="ZkJlQXpscqVsZKB4UgPO-20" edge="1">
          <mxGeometry relative="1" as="geometry" />
        </mxCell>
        <mxCell id="ZkJlQXpscqVsZKB4UgPO-17" style="edgeStyle=orthogonalEdgeStyle;rounded=0;orthogonalLoop=1;jettySize=auto;html=1;exitX=1;exitY=0.5;exitDx=0;exitDy=0;" parent="1" source="ZkJlQXpscqVsZKB4UgPO-18" target="ZkJlQXpscqVsZKB4UgPO-21" edge="1">
          <mxGeometry relative="1" as="geometry">
            <mxPoint x="670" y="415.3529411764707" as="targetPoint" />
          </mxGeometry>
        </mxCell>
        <mxCell id="ZkJlQXpscqVsZKB4UgPO-18" value="tinh(toan,ly,hoa,hetoan,hely,hehoa,&amp;amp;diemtb)" style="shape=process;whiteSpace=wrap;html=1;backgroundOutline=1;fillColor=#FFFF66;" parent="1" vertex="1">
          <mxGeometry x="269" y="285" width="310.5" height="60" as="geometry" />
        </mxCell>
        <mxCell id="ZkJlQXpscqVsZKB4UgPO-19" style="edgeStyle=orthogonalEdgeStyle;rounded=0;orthogonalLoop=1;jettySize=auto;html=1;entryX=0.5;entryY=0;entryDx=0;entryDy=0;" parent="1" source="ZkJlQXpscqVsZKB4UgPO-20" target="ZkJlQXpscqVsZKB4UgPO-3" edge="1">
          <mxGeometry relative="1" as="geometry" />
        </mxCell>
        <mxCell id="ZkJlQXpscqVsZKB4UgPO-20" value="print diemtb" style="shape=parallelogram;perimeter=parallelogramPerimeter;whiteSpace=wrap;html=1;fixedSize=1;" parent="1" vertex="1">
          <mxGeometry x="332" y="410" width="185" height="60" as="geometry" />
        </mxCell>
        <mxCell id="ZkJlQXpscqVsZKB4UgPO-21" value="" style="whiteSpace=wrap;html=1;aspect=fixed;fillColor=#FFFF33;" parent="1" vertex="1">
          <mxGeometry x="630" y="305" width="320" height="320" as="geometry" />
        </mxCell>
        <mxCell id="ZkJlQXpscqVsZKB4UgPO-22" style="edgeStyle=orthogonalEdgeStyle;rounded=0;orthogonalLoop=1;jettySize=auto;html=1;entryX=0.5;entryY=0;entryDx=0;entryDy=0;" parent="1" source="ZkJlQXpscqVsZKB4UgPO-23" target="ZkJlQXpscqVsZKB4UgPO-26" edge="1">
          <mxGeometry relative="1" as="geometry" />
        </mxCell>
        <mxCell id="ZkJlQXpscqVsZKB4UgPO-23" value="tinh(toan,ly,hoa,hetoan,hely,hehoa,*diemtb)" style="ellipse;whiteSpace=wrap;html=1;" parent="1" vertex="1">
          <mxGeometry x="645" y="310" width="275" height="60" as="geometry" />
        </mxCell>
        <mxCell id="ZkJlQXpscqVsZKB4UgPO-24" value="return" style="ellipse;whiteSpace=wrap;html=1;" parent="1" vertex="1">
          <mxGeometry x="661.25" y="550" width="242.5" height="60" as="geometry" />
        </mxCell>
        <mxCell id="ZkJlQXpscqVsZKB4UgPO-25" style="edgeStyle=orthogonalEdgeStyle;rounded=0;orthogonalLoop=1;jettySize=auto;html=1;" parent="1" source="ZkJlQXpscqVsZKB4UgPO-26" target="ZkJlQXpscqVsZKB4UgPO-24" edge="1">
          <mxGeometry relative="1" as="geometry" />
        </mxCell>
        <mxCell id="ZkJlQXpscqVsZKB4UgPO-26" value="*diemtb=((toan*hetoan)+(ly*hely)+(hoa*hehoa))/(hetoan+hely+hehoa)" style="rounded=0;whiteSpace=wrap;html=1;" parent="1" vertex="1">
          <mxGeometry x="655" y="432.5" width="255" height="65" as="geometry" />
        </mxCell>
        <mxCell id="2J5yL2-UcYWqf9Rif4sb-2" style="edgeStyle=orthogonalEdgeStyle;rounded=0;orthogonalLoop=1;jettySize=auto;html=1;entryX=0.5;entryY=0;entryDx=0;entryDy=0;" parent="1" source="2J5yL2-UcYWqf9Rif4sb-1" target="ZkJlQXpscqVsZKB4UgPO-18" edge="1">
          <mxGeometry relative="1" as="geometry">
            <mxPoint x="425.5" y="270" as="targetPoint" />
          </mxGeometry>
        </mxCell>
        <mxCell id="2J5yL2-UcYWqf9Rif4sb-1" value="read toan,ly,hoa,hetoan,hely,hehoa" style="shape=parallelogram;perimeter=parallelogramPerimeter;whiteSpace=wrap;html=1;fixedSize=1;" parent="1" vertex="1">
          <mxGeometry x="285.5" y="160" width="280" height="60" as="geometry" />
        </mxCell>
        <mxCell id="2J5yL2-UcYWqf9Rif4sb-3" style="edgeStyle=orthogonalEdgeStyle;rounded=0;orthogonalLoop=1;jettySize=auto;html=1;exitX=1;exitY=0;exitDx=0;exitDy=0;" parent="1" source="2J5yL2-UcYWqf9Rif4sb-6" target="2J5yL2-UcYWqf9Rif4sb-7" edge="1">
          <mxGeometry relative="1" as="geometry">
            <mxPoint x="60" y="80" as="targetPoint" />
          </mxGeometry>
        </mxCell>
        <mxCell id="2J5yL2-UcYWqf9Rif4sb-4" style="edgeStyle=orthogonalEdgeStyle;rounded=0;orthogonalLoop=1;jettySize=auto;html=1;" parent="1" source="2J5yL2-UcYWqf9Rif4sb-6" target="2J5yL2-UcYWqf9Rif4sb-8" edge="1">
          <mxGeometry relative="1" as="geometry">
            <mxPoint x="100" y="210" as="targetPoint" />
          </mxGeometry>
        </mxCell>
        <mxCell id="2J5yL2-UcYWqf9Rif4sb-5" style="edgeStyle=orthogonalEdgeStyle;rounded=0;orthogonalLoop=1;jettySize=auto;html=1;exitX=1;exitY=1;exitDx=0;exitDy=0;" parent="1" source="2J5yL2-UcYWqf9Rif4sb-6" target="2J5yL2-UcYWqf9Rif4sb-9" edge="1">
          <mxGeometry relative="1" as="geometry">
            <mxPoint x="110" y="380" as="targetPoint" />
          </mxGeometry>
        </mxCell>
        <mxCell id="2J5yL2-UcYWqf9Rif4sb-6" value="Tính điểm trung bình của sinh viên đó." style="whiteSpace=wrap;html=1;aspect=fixed;" parent="1" vertex="1">
          <mxGeometry x="-160" y="130" width="160" height="160" as="geometry" />
        </mxCell>
        <mxCell id="2J5yL2-UcYWqf9Rif4sb-7" value="input: toan,ly,hoa,hetoan,hely,hehoa" style="rounded=0;whiteSpace=wrap;html=1;" parent="1" vertex="1">
          <mxGeometry x="60" y="-10" width="200" height="100" as="geometry" />
        </mxCell>
        <mxCell id="2J5yL2-UcYWqf9Rif4sb-8" value="process:&amp;nbsp;&lt;br&gt;diemtb=((toan*hetoan)+(ly*hely)+(hoa*hehoa))/(hetoan+hely+hehoa)" style="rounded=0;whiteSpace=wrap;html=1;" parent="1" vertex="1">
          <mxGeometry x="40" y="147.5" width="200" height="125" as="geometry" />
        </mxCell>
        <mxCell id="2J5yL2-UcYWqf9Rif4sb-9" value="output: diemtb" style="rounded=0;whiteSpace=wrap;html=1;" parent="1" vertex="1">
          <mxGeometry x="70" y="345" width="120" height="60" as="geometry" />
        </mxCell>
      </root>
    </mxGraphModel>
  </diagram>
</mxfile>
